<?xml version="1.0" encoding="utf-8"?>
<!-- Generator: Adobe Illustrator 17.0.0, SVG Export Plug-In . SVG Version: 6.00 Build 0)  -->
<!DOCTYPE svg PUBLIC "-//W3C//DTD SVG 1.1//EN" "http://www.w3.org/Graphics/SVG/1.1/DTD/svg11.dtd">
<svg version="1.1" id="Layer_1" xmlns="http://www.w3.org/2000/svg" xmlns:xlink="http://www.w3.org/1999/xlink" x="0px" y="0px"
	 width="98.176px" height="107.583px" viewBox="0 0 98.176 107.583" enable-background="new 0 0 98.176 107.583"
	 xml:space="preserve">
<linearGradient id="SVGID_1_" gradientUnits="userSpaceOnUse" x1="34.1493" y1="94.0612" x2="34.1493" y2="103.5225">
	<stop  offset="0" style="stop-color:#DD2D2B"/>
	<stop  offset="1" style="stop-color:#A91F23"/>
</linearGradient>
<path fill="url(#SVGID_1_)" d="M35.294,92.062c0.311-1.208,0.573-2.238,0.471-3.454c1.558,1.278,3.908,5.003,5.004,5.408
	c-2.109,5.697-11.878,5.044-13.239,4.455c0.406-0.963,1.029-2.117,1.808-2.894C31.958,96.124,34.496,95.16,35.294,92.062z"/>
<linearGradient id="SVGID_2_" gradientUnits="userSpaceOnUse" x1="34.9638" y1="94.642" x2="23.9583" y2="107.5797">
	<stop  offset="0" style="stop-color:#DD2D2B"/>
	<stop  offset="1" style="stop-color:#F26636"/>
</linearGradient>
<path fill="url(#SVGID_2_)" d="M35.176,89.583c0-2.041-0.687-3.917-1.833-5.427c3.116,1.076,8.921,5.427,10.833,5.427
	c0,9.941-8.059,18-18,18c0-3.316,0.008-6.213,1.344-9.111C31.851,97.822,35.176,94.096,35.176,89.583z"/>
<linearGradient id="SVGID_3_" gradientUnits="userSpaceOnUse" x1="56.8438" y1="20.0529" x2="66.0938" y2="18.6779">
	<stop  offset="0" style="stop-color:#A91F23"/>
	<stop  offset="1" style="stop-color:#DD2D2B"/>
</linearGradient>
<path fill="url(#SVGID_3_)" d="M59.411,24.182c0.634,1.074,1.126,2.192,2.147,2.738c-2.005,0.198-6.339-0.736-7.4-0.248
	c-2.538-5.52-0.12-12.052,5.4-14.589c0.846,1.841,1.582,3.452,1.579,5.402C58.898,18.951,57.785,21.427,59.411,24.182z"/>
<linearGradient id="SVGID_4_" gradientUnits="userSpaceOnUse" x1="91.7355" y1="94.2634" x2="94.6105" y2="92.1384">
	<stop  offset="0" style="stop-color:#A91F23"/>
	<stop  offset="1" style="stop-color:#DD2D2B"/>
</linearGradient>
<path fill="url(#SVGID_4_)" d="M89.067,92.062c-0.311-1.208-0.573-2.238-0.471-3.454c-1.558,1.278-3.908,5.003-5.004,5.408
	c2.109,5.697,11.878,5.044,13.239,4.455c-0.406-0.963-1.029-2.117-1.808-2.894C92.403,96.124,89.865,95.16,89.067,92.062z"/>
<linearGradient id="SVGID_5_" gradientUnits="userSpaceOnUse" x1="85.2903" y1="90.2962" x2="99.6473" y2="104.6532">
	<stop  offset="0" style="stop-color:#A91F23"/>
	<stop  offset="1" style="stop-color:#DD2D2B"/>
</linearGradient>
<path fill="url(#SVGID_5_)" d="M89.176,89.583c0-2.041,0.687-3.917,1.833-5.427c-3.116,1.076-8.921,5.427-10.833,5.427
	c0,9.941,8.059,18,18,18c0-3.316-0.008-6.213-1.344-9.111C92.5,97.822,89.176,94.096,89.176,89.583z"/>
<linearGradient id="SVGID_6_" gradientUnits="userSpaceOnUse" x1="46.1353" y1="68.4259" x2="74.4686" y2="40.5926">
	<stop  offset="0" style="stop-color:#A91F23"/>
	<stop  offset="1" style="stop-color:#DD2D2B"/>
</linearGradient>
<path fill="url(#SVGID_6_)" d="M64.94,29.705c-15.117-11.338-0.095-15.68-3.761-24.003C60.5,3.587,58.227,1.07,56.676,0
	c-19.594,7.653-18.833,27.5-3.5,35.583c0,4.383,4.5,72,4.5,72s40.5-18,40.5-36S80.351,41.264,64.94,29.705z"/>
<linearGradient id="SVGID_7_" gradientUnits="userSpaceOnUse" x1="11.4458" y1="46.1383" x2="7.4458" y2="50.1383">
	<stop  offset="0" style="stop-color:#A91F23"/>
	<stop  offset="0.307" style="stop-color:#AF2024"/>
	<stop  offset="0.3822" style="stop-color:#B12124"/>
	<stop  offset="0.6299" style="stop-color:#BD2426"/>
	<stop  offset="1" style="stop-color:#DD2D2B"/>
</linearGradient>
<path fill="url(#SVGID_7_)" d="M10.796,53.363c0.311,1.208,0.573,2.238,0.471,3.454c1.558-1.278,3.908-5.003,5.004-5.408
	c-2.109-5.697-8.437-8.607-14.134-6.498c0.703,1.9,1.322,3.559,2.703,4.937C7.459,49.301,9.998,50.265,10.796,53.363z"/>
<linearGradient id="SVGID_8_" gradientUnits="userSpaceOnUse" x1="12.5796" y1="82.0317" x2="16.627" y2="85.9994">
	<stop  offset="0" style="stop-color:#DD2D2B"/>
	<stop  offset="1" style="stop-color:#A91F23"/>
</linearGradient>
<path fill="url(#SVGID_8_)" d="M8.045,83.556c-1.094,0.599-2.028,1.107-3.231,1.308c1.622,1.195,5.812,2.554,6.475,3.516
	c5.002-3.448,6.261-10.298,2.813-15.3c-1.668,1.15-3.123,2.159-4.118,3.837C11.159,79.321,10.851,82.018,8.045,83.556z"/>
<linearGradient id="SVGID_9_" gradientUnits="userSpaceOnUse" x1="0.4779" y1="64.6631" x2="22.6029" y2="68.2881">
	<stop  offset="0" style="stop-color:#DD2D2B"/>
	<stop  offset="1" style="stop-color:#AE2024"/>
</linearGradient>
<path fill="url(#SVGID_9_)" d="M4.631,44.314c-0.001,0.004,0,0.007-0.001,0.01c3.909,1.767,6.635,5.692,6.635,10.261
	c0,2.777,0.018,8.307,0,11.265C5.043,65.85,0,70.894,0,77.115c0,5.918,4.566,10.76,10.366,11.219
	c0.301,0.03,0.601,0.045,0.899,0.045c0-3.846,1.359-7.72,1.359-7.72c7.576-0.686,13.511-7.055,13.511-14.809
	c0-4.439,7.6-8.474,13.291-11.248v-5.649C22.529,65.85,22.569,42.604,4.631,44.314z"/>
<g>
	<defs>
		<path id="SVGID_10_" d="M4.631,44.314c-0.001,0.004,0,0.007-0.001,0.01c3.909,1.767,6.635,5.692,6.635,10.261
			c0,2.777,0.018,8.307,0,11.265C5.043,65.85,0,70.894,0,77.115c0,5.918,4.566,10.76,10.366,11.219
			c0.301,0.03,0.601,0.045,0.899,0.045c0-3.846,1.359-7.72,1.359-7.72c7.576-0.686,13.511-7.055,13.511-14.809
			c0-4.439,7.6-8.474,13.291-11.248v-5.649C22.529,65.85,22.569,42.604,4.631,44.314z"/>
	</defs>
	<clipPath id="SVGID_11_">
		<use xlink:href="#SVGID_10_"  overflow="visible"/>
	</clipPath>
	<path clip-path="url(#SVGID_11_)" fill="#A91F23" d="M39.426,48.954c-3.586,3.586-6.41,5.364-8.804,5.956
		c-0.626,0.596-1.339-1.718-2.122-0.727c-1.91-3.213-4.899-2.724-8.426-4.036c-0.944,2.537-1.763,4.757-1.565,7.355
		c5.897,3.65,5.401,9.539,4.757,10.943c0.584,1.583,1.426,4.473,2.067,5.332c1.248-1.481-0.494-1.563,0.102-3.454
		c1.961-0.528,3.779-1.005,4.522-0.728c1.14-3.066,0.975-6.355-0.107-9.381c2.706-2.159,6.429-4.078,9.575-5.611V48.954z"/>
</g>
<path fill="#A91F23" d="M57.676,107.583c0,0,23.075-27,18.575-36c4.5-9-17.725-21.063-23.075-36c0,0,38.631,18.208,38.631,34.802
	C91.807,93.229,57.676,107.583,57.676,107.583z"/>
<radialGradient id="SVGID_12_" cx="41.148" cy="43.4362" r="56.3763" gradientUnits="userSpaceOnUse">
	<stop  offset="0" style="stop-color:#F4DC32"/>
	<stop  offset="1" style="stop-color:#F26636"/>
</radialGradient>
<path fill="url(#SVGID_12_)" d="M57.676,107.583c0,0-18.177-15.581-28.888-27.016c3.063-3.401,5.478-7.738,4.396-9.901
	c1.528-3.055-3-5.25-6.222-8.6c4.342-6.63,11.351-14.593,26.213-26.483c0,0,36,19.745,36,36
	C89.176,90.159,57.676,107.583,57.676,107.583z"/>
<linearGradient id="SVGID_13_" gradientUnits="userSpaceOnUse" x1="29.74" y1="84.973" x2="30.3622" y2="62.4862">
	<stop  offset="0" style="stop-color:#F4DC32"/>
	<stop  offset="1" style="stop-color:#F26636"/>
</linearGradient>
<path fill="url(#SVGID_13_)" d="M26.963,62.067c-0.504,0.769-0.968,1.519-1.408,2.256c3.843,0.199,6.9,3.368,6.9,7.26
	c0,3.385-2.315,6.222-5.445,7.036c0.569,0.634,1.157,1.281,1.781,1.947c3.558-1.433,6.073-4.912,6.073-8.984
	C34.863,66.844,31.458,62.907,26.963,62.067z"/>
<g>
	<linearGradient id="SVGID_14_" gradientUnits="userSpaceOnUse" x1="29.1696" y1="72.7416" x2="29.1696" y2="65.5149">
		<stop  offset="0" style="stop-color:#A91F23"/>
		<stop  offset="1" style="stop-color:#DD2D2B"/>
	</linearGradient>
	<path fill="url(#SVGID_14_)" d="M25.885,64.357c3.554,0.347,6.363,3.247,6.551,6.844c0.007,0.128,0.019,0.254,0.019,0.383
		C32.455,67.804,29.57,64.715,25.885,64.357z"/>
	<linearGradient id="SVGID_15_" gradientUnits="userSpaceOnUse" x1="24.9582" y1="66.6862" x2="24.9582" y2="64.6796">
		<stop  offset="0" style="stop-color:#A91F23"/>
		<stop  offset="1" style="stop-color:#DD2D2B"/>
	</linearGradient>
	<path fill="url(#SVGID_15_)" d="M25.533,64.358c-0.405,0.68-0.785,1.347-1.15,2.007c0.018-0.033,0.035-0.066,0.054-0.099
		C24.785,65.638,25.148,65.003,25.533,64.358z"/>
	<linearGradient id="SVGID_16_" gradientUnits="userSpaceOnUse" x1="27.065" y1="80.5952" x2="27.065" y2="68.2782">
		<stop  offset="0" style="stop-color:#A91F23"/>
		<stop  offset="1" style="stop-color:#DD2D2B"/>
	</linearGradient>
	<path fill="url(#SVGID_16_)" d="M32.455,71.584c0,0.552-0.448,0.999-1,0.999c-0.552,0-1-0.447-1-1c0-2.911-2.368-5.279-5.279-5.279
		c-0.275,0-0.539,0.04-0.803,0.081c-0.98,1.773-1.841,3.487-2.697,5.198c0.883,1.765,2.812,4.228,5.33,7.038
		C30.138,77.808,32.455,74.97,32.455,71.584C32.455,71.584,32.455,71.584,32.455,71.584z"/>
</g>
<path fill="#A91F23" d="M32.436,71.201c-0.189-3.597-2.997-6.497-6.552-6.844c-0.11-0.011-0.219-0.027-0.331-0.033
	c-0.001,0.002-0.003,0.004-0.004,0.007c-0.391,0.655-0.759,1.299-1.112,1.935c-0.022,0.04-0.043,0.08-0.065,0.12
	c0.264-0.041,0.528-0.081,0.803-0.081c2.911,0,5.279,2.368,5.279,5.279c0,0.553,0.448,1,1,1c0.552,0,1-0.447,1-0.999
	c0,0,0,0,0-0.001C32.455,71.454,32.442,71.328,32.436,71.201z"/>
<linearGradient id="SVGID_17_" gradientUnits="userSpaceOnUse" x1="27.2466" y1="57.6487" x2="57.58" y2="72.6487">
	<stop  offset="0" style="stop-color:#F4DC32"/>
	<stop  offset="1" style="stop-color:#F4DC32;stop-opacity:0"/>
</linearGradient>
<path fill="url(#SVGID_17_)" d="M53.176,35.583C47.842,47.939,41.982,59.77,41.982,74.27c0,8.49,2.194,19.458,15.694,33.314
	c5.894-3.653,28.464-24.053,27.35-37.897C83.859,55.186,64.535,42.652,53.176,35.583z"/>
<g>
	<linearGradient id="SVGID_18_" gradientUnits="userSpaceOnUse" x1="61.7803" y1="85.8656" x2="62.434" y2="62.2403">
		<stop  offset="0" style="stop-color:#F4DC32"/>
		<stop  offset="1" style="stop-color:#F26636"/>
	</linearGradient>
	<circle fill="url(#SVGID_18_)" cx="62.176" cy="71.583" r="9.688"/>
	<linearGradient id="SVGID_19_" gradientUnits="userSpaceOnUse" x1="62.1755" y1="81.1957" x2="62.1755" y2="66.6376">
		<stop  offset="0" style="stop-color:#A91F23"/>
		<stop  offset="1" style="stop-color:#DD2D2B"/>
	</linearGradient>
	<circle fill="url(#SVGID_19_)" cx="62.176" cy="71.583" r="7.279"/>
	<linearGradient id="SVGID_20_" gradientUnits="userSpaceOnUse" x1="56.8985" y1="70.0711" x2="60.1514" y2="70.0711">
		<stop  offset="0" style="stop-color:#DD2D2B"/>
		<stop  offset="1" style="stop-color:#F26636"/>
	</linearGradient>
	<path fill="url(#SVGID_20_)" d="M57.898,72.583c-0.552,0-1-0.447-1-1c0-1.409,0.549-2.734,1.546-3.731
		c0.391-0.391,1.023-0.391,1.414,0s0.391,1.023,0,1.414c-0.619,0.619-0.96,1.442-0.96,2.317
		C58.898,72.136,58.451,72.583,57.898,72.583z"/>
	<path fill="#A91F23" d="M68.455,72.583c-0.552,0-1-0.447-1-1c0-2.911-2.368-5.279-5.279-5.279c-2.911,0-5.279,2.368-5.279,5.279
		c0,0.553-0.448,1-1,1s-1-0.447-1-1c0-4.014,3.265-7.279,7.279-7.279s7.279,3.266,7.279,7.279
		C69.455,72.136,69.007,72.583,68.455,72.583z"/>
</g>
<g>
	<defs>
		<path id="SVGID_21_" d="M57.676,107.583c0,0-31.5-27-36-36c4.5-9,9-18,31.5-36c0,0,36,19.745,36,36
			C89.176,90.159,57.676,107.583,57.676,107.583z"/>
	</defs>
	<clipPath id="SVGID_22_">
		<use xlink:href="#SVGID_21_"  overflow="visible"/>
	</clipPath>
</g>
<linearGradient id="SVGID_23_" gradientUnits="userSpaceOnUse" x1="41.9816" y1="83.9728" x2="41.9816" y2="79.3742">
	<stop  offset="0" style="stop-color:#DD2D2B"/>
	<stop  offset="1" style="stop-color:#F26636"/>
</linearGradient>
<path fill="url(#SVGID_23_)" d="M45.457,83.973c-0.413,0-0.823-0.169-1.119-0.501c-1.209-1.351-3.488-1.418-4.771-0.137
	c-0.586,0.586-1.535,0.586-2.121,0s-0.586-1.535,0-2.121c1.187-1.187,2.764-1.84,4.441-1.84c1.787,0,3.495,0.766,4.687,2.1
	c0.553,0.617,0.499,1.565-0.119,2.117C46.169,83.847,45.813,83.973,45.457,83.973z"/>
<g>
	<defs>
		<path id="SVGID_24_" d="M64.94,29.705c-15.117-11.338-0.095-15.68-3.761-24.003C60.5,3.587,58.227,1.07,56.676,0
			c-19.594,7.653-18.833,27.5-3.5,35.583c0,4.383,4.5,72,4.5,72s40.5-18,40.5-36S80.351,41.264,64.94,29.705z"/>
	</defs>
	<clipPath id="SVGID_25_">
		<use xlink:href="#SVGID_24_"  overflow="visible"/>
	</clipPath>
	<linearGradient id="SVGID_26_" gradientUnits="userSpaceOnUse" x1="67.1154" y1="-26.4982" x2="78.7821" y2="66.0018">
		<stop  offset="0" style="stop-color:#F26636"/>
		<stop  offset="1" style="stop-color:#F26636;stop-opacity:0"/>
	</linearGradient>
	<path clip-path="url(#SVGID_25_)" fill="url(#SVGID_26_)" d="M97.176,76.626C98.176,33.109,27.53,35.583,61.04,4.6
		c0.548,0.89,4.031,5.592,4.211,6.677C55.896,22.776,111.417,44.224,97.176,76.626z"/>
</g>
</svg>
